<svg xmlns="http://www.w3.org/2000/svg" xmlns:xlink="http://www.w3.org/1999/xlink" id="visual" version="1.1" viewBox="0 370.31 900 230.69">
    <path d="M0 430L7.5 426.5C15 423 30 416 45 416.7C60 417.3 75 425.7 90 429.5C105 433.3 120 432.7 135 433C150 433.3 165 434.7 180 436.8C195 439 210 442 225 432.3C240 422.7 255 400.3 270 387C285 373.7 300 369.3 315 370.5C330 371.7 345 378.3 360 389.2C375 400 390 415 405 418C420 421 435 412 450 411.2C465 410.3 480 417.7 495 421.8C510 426 525 427 540 423.3C555 419.7 570 411.3 585 410C600 408.7 615 414.3 630 409.8C645 405.3 660 390.7 675 386.7C690 382.7 705 389.3 720 400.8C735 412.3 750 428.7 765 426.8C780 425 795 405 810 396C825 387 840 389 855 399.2C870 409.3 885 427.7 892.5 436.8L900 446L900 601L892.5 601C885 601 870 601 855 601C840 601 825 601 810 601C795 601 780 601 765 601C750 601 735 601 720 601C705 601 690 601 675 601C660 601 645 601 630 601C615 601 600 601 585 601C570 601 555 601 540 601C525 601 510 601 495 601C480 601 465 601 450 601C435 601 420 601 405 601C390 601 375 601 360 601C345 601 330 601 315 601C300 601 285 601 270 601C255 601 240 601 225 601C210 601 195 601 180 601C165 601 150 601 135 601C120 601 105 601 90 601C75 601 60 601 45 601C30 601 15 601 7.5 601L0 601Z" fill="#22242a"/>
    <path d="M0 400L7.5 409.8C15 419.7 30 439.3 45 446.5C60 453.7 75 448.3 90 448.7C105 449 120 455 135 449C150 443 165 425 180 419.8C195 414.7 210 422.3 225 429.3C240 436.3 255 442.7 270 447C285 451.3 300 453.7 315 451.3C330 449 345 442 360 442.3C375 442.7 390 450.3 405 451.5C420 452.7 435 447.3 450 437C465 426.7 480 411.3 495 414.5C510 417.7 525 439.3 540 443.5C555 447.7 570 434.3 585 430.2C600 426 615 431 630 434.5C645 438 660 440 675 444.3C690 448.7 705 455.3 720 452C735 448.7 750 435.3 765 428.7C780 422 795 422 810 426C825 430 840 438 855 441.3C870 444.7 885 443.3 892.5 442.7L900 442L900 601L892.5 601C885 601 870 601 855 601C840 601 825 601 810 601C795 601 780 601 765 601C750 601 735 601 720 601C705 601 690 601 675 601C660 601 645 601 630 601C615 601 600 601 585 601C570 601 555 601 540 601C525 601 510 601 495 601C480 601 465 601 450 601C435 601 420 601 405 601C390 601 375 601 360 601C345 601 330 601 315 601C300 601 285 601 270 601C255 601 240 601 225 601C210 601 195 601 180 601C165 601 150 601 135 601C120 601 105 601 90 601C75 601 60 601 45 601C30 601 15 601 7.5 601L0 601Z" fill="#1f2127"/>
    <path d="M0 498L7.5 494.2C15 490.3 30 482.7 45 483.2C60 483.7 75 492.3 90 494.3C105 496.3 120 491.7 135 481.5C150 471.3 165 455.7 180 453.7C195 451.7 210 463.3 225 467.3C240 471.3 255 467.7 270 464C285 460.3 300 456.7 315 462.5C330 468.3 345 483.7 360 482.7C375 481.7 390 464.3 405 455.8C420 447.3 435 447.7 450 449.5C465 451.3 480 454.7 495 464.2C510 473.7 525 489.3 540 497.8C555 506.3 570 507.7 585 497.8C600 488 615 467 630 460.2C645 453.3 660 460.7 675 468.7C690 476.7 705 485.3 720 488.3C735 491.3 750 488.7 765 481.3C780 474 795 462 810 454.3C825 446.7 840 443.3 855 449.3C870 455.3 885 470.7 892.5 478.3L900 486L900 601L892.5 601C885 601 870 601 855 601C840 601 825 601 810 601C795 601 780 601 765 601C750 601 735 601 720 601C705 601 690 601 675 601C660 601 645 601 630 601C615 601 600 601 585 601C570 601 555 601 540 601C525 601 510 601 495 601C480 601 465 601 450 601C435 601 420 601 405 601C390 601 375 601 360 601C345 601 330 601 315 601C300 601 285 601 270 601C255 601 240 601 225 601C210 601 195 601 180 601C165 601 150 601 135 601C120 601 105 601 90 601C75 601 60 601 45 601C30 601 15 601 7.5 601L0 601Z" fill="#1d1f24"/>
    <path d="M0 529L7.5 526.3C15 523.7 30 518.3 45 513.5C60 508.7 75 504.3 90 506.8C105 509.3 120 518.7 135 519.5C150 520.3 165 512.7 180 508.3C195 504 210 503 225 508.3C240 513.7 255 525.3 270 527C285 528.7 300 520.3 315 520C330 519.7 345 527.3 360 523.3C375 519.3 390 503.7 405 496C420 488.3 435 488.7 450 490.8C465 493 480 497 495 501.8C510 506.7 525 512.3 540 515C555 517.7 570 517.3 585 518C600 518.7 615 520.3 630 522.2C645 524 660 526 675 521.2C690 516.3 705 504.7 720 503C735 501.3 750 509.7 765 511.8C780 514 795 510 810 512.5C825 515 840 524 855 523.3C870 522.7 885 512.3 892.5 507.2L900 502L900 601L892.5 601C885 601 870 601 855 601C840 601 825 601 810 601C795 601 780 601 765 601C750 601 735 601 720 601C705 601 690 601 675 601C660 601 645 601 630 601C615 601 600 601 585 601C570 601 555 601 540 601C525 601 510 601 495 601C480 601 465 601 450 601C435 601 420 601 405 601C390 601 375 601 360 601C345 601 330 601 315 601C300 601 285 601 270 601C255 601 240 601 225 601C210 601 195 601 180 601C165 601 150 601 135 601C120 601 105 601 90 601C75 601 60 601 45 601C30 601 15 601 7.5 601L0 601Z" fill="#1b1c21"/>
    <path d="M0 526L7.5 530.5C15 535 30 544 45 548.8C60 553.7 75 554.3 90 551.3C105 548.3 120 541.7 135 542.7C150 543.7 165 552.3 180 554.7C195 557 210 553 225 553.3C240 553.7 255 558.3 270 559.5C285 560.7 300 558.3 315 557.2C330 556 345 556 360 554.7C375 553.3 390 550.7 405 546.5C420 542.3 435 536.7 450 537.5C465 538.3 480 545.7 495 551.7C510 557.7 525 562.3 540 562.8C555 563.3 570 559.7 585 555.5C600 551.3 615 546.7 630 544C645 541.3 660 540.7 675 538C690 535.3 705 530.7 720 536C735 541.3 750 556.7 765 558C780 559.3 795 546.7 810 544.3C825 542 840 550 855 552.5C870 555 885 552 892.5 550.5L900 549L900 601L892.5 601C885 601 870 601 855 601C840 601 825 601 810 601C795 601 780 601 765 601C750 601 735 601 720 601C705 601 690 601 675 601C660 601 645 601 630 601C615 601 600 601 585 601C570 601 555 601 540 601C525 601 510 601 495 601C480 601 465 601 450 601C435 601 420 601 405 601C390 601 375 601 360 601C345 601 330 601 315 601C300 601 285 601 270 601C255 601 240 601 225 601C210 601 195 601 180 601C165 601 150 601 135 601C120 601 105 601 90 601C75 601 60 601 45 601C30 601 15 601 7.5 601L0 601Z" fill="#191a1f"/>
</svg>