<svg xmlns="http://www.w3.org/2000/svg" xmlns:xlink="http://www.w3.org/1999/xlink" version="1.1" x="0px" y="0px" viewBox="0 0 100 125" enable-background="new 0 0 100 100" xml:space="preserve"><g><path fill="#000000" d="M74.977,47.217c-0.466-0.317-1.115-0.353-1.527-0.151l-22.138,9.79L28.144,46.423   c-0.495-0.213-1.093-0.15-1.471,0.113c-0.444,0.265-0.727,0.74-0.773,1.262l-2.646,27.009c-0.072,0.63,0.216,1.246,0.725,1.582   c0.546,0.363,1.274,0.344,1.786-0.028c4.828-3.426,10.998-7.122,12.547-7.122c1.254,0,6.346,4.013,10.905,8.599   c0.299,0.294,0.7,0.462,1.119,0.462c0.376,0,0.717-0.129,1.014-0.367c3.795-3.188,10.195-7.669,12.568-7.669   c2.795,0,8.424,4.438,10.194,6.009c0.289,0.243,0.66,0.384,1.032,0.384c0.275,0,0.537-0.079,0.752-0.196   c0.538-0.293,0.879-0.896,0.859-1.547l-1.066-26.386C75.666,47.982,75.4,47.503,74.977,47.217z"/><path fill="#000000" d="M93.711,28.89L51.362,12.985c-0.354-0.121-0.71-0.133-1.094,0.008L6.31,28.89   c-0.639,0.236-1.067,0.818-1.089,1.5c-0.027,0.668,0.343,1.29,0.962,1.589l9.297,4.605C13.919,39.065,12.445,43,12.786,50h-0.211   C11.167,50,10,50.589,10,52.081v4.367c0,1.292,0.85,2.365,1.978,2.65L8.003,86.87l1.757-1.128c0.216-0.142,0.531-0.313,0.824-0.466   c0.061,0.678,0.171,1.327,0.827,1.566c0.196,0.074,0.39,0.113,0.594,0.113c0.789,0,1.308-0.537,1.724-0.967   c0.162-0.162,0.386-0.393,0.54-0.479c0.113,0.118,0.278,0.306,0.386,0.434c0.466,0.545,0.991,1.164,1.769,1.164l0.366-0.051   c0.984-0.266,1.382-1.159,1.629-1.833c0.312,0.087,0.752,0.259,1.081,0.423l1.641,0.807L17.02,59.075   c1.077-0.312,1.98-1.377,1.98-2.627v-4.367C19,50.589,17.65,50,16.248,50h-0.879l3.517-11.848l14.28,6.426l17.138,6.485   c0.376,0.132,0.75,0.094,1.11-0.042l19.576-8.155L93.881,31.96c0.587-0.298,0.938-0.928,0.896-1.571   C94.749,29.713,94.331,29.128,93.711,28.89z"/></g><text x="0" y="115" fill="#000000" font-size="5px" font-weight="bold" font-family="'Helvetica Neue', Helvetica, Arial-Unicode, Arial, Sans-serif">Created by Nick Kinling</text><text x="0" y="120" fill="#000000" font-size="5px" font-weight="bold" font-family="'Helvetica Neue', Helvetica, Arial-Unicode, Arial, Sans-serif">from the Noun Project</text></svg>